<?xml version="1.0" encoding="utf-8"?>
<!-- Generator: Adobe Illustrator 24.0.3, SVG Export Plug-In . SVG Version: 6.00 Build 0)  -->
<svg version="1.1" id="Ebene_1" xmlns="http://www.w3.org/2000/svg" xmlns:xlink="http://www.w3.org/1999/xlink" x="0px" y="0px"
	 viewBox="0 0 225.8 49.2" style="enable-background:new 0 0 225.8 49.2;" xml:space="preserve">
<style type="text/css">
	.st0{fill:#DF7976;}
</style>
<g>
	<path class="st0" d="M14,49.2c-2.5,0-4.9-0.6-7-1.9c-2.1-1.3-3.8-3.1-5.1-5.4C0.6,39.6,0,36.9,0,33.9c0-2.9,0.6-5.5,1.8-7.8
		c1.2-2.3,2.9-4.1,5.1-5.4c2.2-1.3,4.6-2,7.4-2c1.6,0,3.2,0.2,4.7,0.7c1.5,0.5,2.8,1.2,3.9,2V0.1h11.6v48.2H22.9V46
		c-1.3,1-2.7,1.8-4.2,2.3C17.2,48.9,15.6,49.2,14,49.2z M17.7,39.3c1.1,0,2-0.2,2.8-0.7c0.8-0.5,1.5-1.1,1.9-1.9
		c0.5-0.8,0.7-1.7,0.7-2.7c0-1-0.2-2-0.7-2.8s-1.1-1.5-1.9-1.9c-0.8-0.5-1.7-0.7-2.8-0.7c-1,0-1.9,0.2-2.8,0.7
		c-0.8,0.5-1.5,1.1-1.9,1.9C12.6,32,12.3,33,12.3,34c0,1,0.2,1.9,0.7,2.7c0.4,0.8,1.1,1.4,1.9,1.9S16.6,39.3,17.7,39.3z"/>
	<path class="st0" d="M58.1,49.2c-3.3,0-6.2-0.6-8.9-1.9s-4.7-3.1-6.3-5.4c-1.5-2.3-2.3-4.9-2.3-7.9s0.8-5.6,2.3-7.9
		c1.5-2.3,3.6-4.1,6.3-5.4s5.6-1.9,8.9-1.9s6.2,0.6,8.9,1.9c2.6,1.3,4.7,3.1,6.3,5.4s2.3,4.9,2.3,7.9s-0.8,5.6-2.3,7.9
		c-1.5,2.3-3.6,4.1-6.3,5.4C64.3,48.5,61.4,49.2,58.1,49.2z M58.1,39.3c0.9,0,1.8-0.2,2.6-0.7c0.8-0.5,1.4-1.1,1.9-1.9
		c0.5-0.8,0.7-1.7,0.7-2.8s-0.2-2-0.7-2.8c-0.5-0.8-1.1-1.4-1.9-1.9c-0.8-0.4-1.7-0.7-2.6-0.7c-1,0-1.8,0.2-2.6,0.7
		c-0.8,0.4-1.4,1.1-1.9,1.9c-0.5,0.8-0.7,1.8-0.7,2.8s0.2,2,0.7,2.8c0.5,0.8,1.1,1.4,1.9,1.9C56.2,39.1,57.1,39.3,58.1,39.3z"/>
	<path class="st0" d="M81.5,48.3V19.6h11.6v2.7c1.6-1.3,3.1-2.2,4.3-2.8c1.3-0.5,2.6-0.8,4-0.8c2.1,0,4,0.5,5.8,1.4
		c1.8,0.9,3.1,2.1,3.9,3.7c1.6-1.8,3.2-3.1,4.7-3.9s3.2-1.2,5.1-1.2c2.1,0,3.9,0.4,5.6,1.3c1.6,0.9,2.9,2.1,3.8,3.7
		c0.9,1.6,1.4,3.4,1.4,5.4v19.2h-11.6v-16c0-1.3-0.3-2.4-1-3.2c-0.7-0.8-1.6-1.1-2.9-1.1c-0.8,0-1.5,0.2-2.1,0.5
		c-0.6,0.3-1,0.8-1.3,1.3s-0.5,1.3-0.5,2.1v16.5h-11.6v-16c0-1.3-0.3-2.3-1-3.1s-1.6-1.2-2.9-1.2c-0.8,0-1.5,0.2-2.1,0.5
		c-0.6,0.3-1,0.8-1.3,1.5c-0.3,0.6-0.5,1.4-0.5,2.3v16.1H81.5z"/>
	<path class="st0" d="M146,13.5c-1.2,0-2.4-0.3-3.4-0.9c-1-0.6-1.8-1.4-2.4-2.4c-0.6-1-0.9-2.2-0.9-3.4c0-1.2,0.3-2.4,0.9-3.4
		c0.6-1,1.4-1.8,2.4-2.4c1-0.6,2.2-0.9,3.4-0.9c1.2,0,2.4,0.3,3.4,0.9c1,0.6,1.8,1.4,2.4,2.4c0.6,1,0.9,2.1,0.9,3.4
		c0,1.2-0.3,2.4-0.9,3.4c-0.6,1-1.4,1.8-2.4,2.4C148.4,13.2,147.3,13.5,146,13.5z M140.2,48.3V19.6h11.6v28.7H140.2z"/>
	<path class="st0" d="M156.7,48.3l12.2-19.9h-9.8v-8.7h29.1L176,39.5h11v8.7H156.7z"/>
	<path class="st0" d="M199.5,13.5c-1.2,0-2.4-0.3-3.4-0.9c-1-0.6-1.8-1.4-2.4-2.4c-0.6-1-0.9-2.2-0.9-3.4c0-1.2,0.3-2.4,0.9-3.4
		c0.6-1,1.4-1.8,2.4-2.4c1-0.6,2.2-0.9,3.4-0.9c1.2,0,2.4,0.3,3.4,0.9c1,0.6,1.8,1.4,2.4,2.4c0.6,1,0.9,2.1,0.9,3.4
		c0,1.2-0.3,2.4-0.9,3.4c-0.6,1-1.4,1.8-2.4,2.4C201.9,13.2,200.8,13.5,199.5,13.5z M193.7,48.3V19.6h11.6v28.7H193.7z"/>
	<path class="st0" d="M214.1,48.3V0.1h11.6v48.2H214.1z"/>
</g>
</svg>
