<?xml version="1.0" encoding="utf-8"?>
<!-- Generator: Adobe Illustrator 24.0.3, SVG Export Plug-In . SVG Version: 6.00 Build 0)  -->
<svg version="1.1" id="Ebene_1" xmlns="http://www.w3.org/2000/svg" xmlns:xlink="http://www.w3.org/1999/xlink" x="0px" y="0px"
	 viewBox="0 0 141.7 141.7" style="enable-background:new 0 0 141.7 141.7;" xml:space="preserve">
<style type="text/css">
	.st0{fill:#CCCCCC;}
	.st1{fill:#FFFFFF;}
</style>
<g>
	<path class="st0" d="M70.9,3c37.4,0,67.9,30.4,67.9,67.9s-30.4,67.9-67.9,67.9S3,108.3,3,70.9S33.4,3,70.9,3 M70.9,0
		C31.7,0,0,31.7,0,70.9s31.7,70.9,70.9,70.9s70.9-31.7,70.9-70.9S110,0,70.9,0L70.9,0z"/>
</g>
<path id="Icon_open-person" class="st0" d="M70.8,34.5C61,34.5,53,44.5,53,56.7s8,22.1,17.7,22.1s17.7-9.9,17.7-22.1
	S80.5,34.5,70.8,34.5z M52.2,78.8c-9.4,0.4-16.9,8.2-16.9,17.7v8.8h70.9v-8.8c0-9.5-7.4-17.3-16.9-17.7c-4.6,5.5-11.3,8.7-18.5,8.8
	C63.6,87.5,56.9,84.3,52.2,78.8z"/>
<g id="Icon_awesome-plus">
	<path class="st0" d="M119.2,37.9c-2.3,0-4.2-1.9-4.2-4.2v-8.1h-8.1c-2.3,0-4.2-1.9-4.2-4.2v-2.2c0-2.3,1.9-4.2,4.2-4.2h8.1V6.7
		c0-2.3,1.9-4.2,4.2-4.2h2.2c2.3,0,4.2,1.9,4.2,4.2v8.1h8.1c2.3,0,4.2,1.9,4.2,4.2v2.2c0,2.3-1.9,4.2-4.2,4.2h-8.1v8.1
		c0,2.3-1.9,4.2-4.2,4.2H119.2z"/>
	<path class="st1" d="M121.5,4.4c1.2,0,2.2,1,2.2,2.2v10.1h10.1c1.2,0,2.2,1,2.2,2.2v2.2c0,1.2-1,2.2-2.2,2.2h-10.1v10.1
		c0,1.2-1,2.2-2.2,2.2h-2.2c-1.2,0-2.2-1-2.2-2.2V23.6h-10.1c-1.2,0-2.2-1-2.2-2.2v-2.2c0-1.2,1-2.2,2.2-2.2H117V6.7
		c0-1.2,1-2.2,2.2-2.2H121.5 M121.5,0.4h-2.2c-3.4,0-6.2,2.8-6.2,6.2v6.1h-6.1c-3.4,0-6.2,2.8-6.2,6.2v2.2c0,3.4,2.8,6.2,6.2,6.2
		h6.1v6.1c0,3.4,2.8,6.2,6.2,6.2h2.2c3.4,0,6.2-2.8,6.2-6.2v-6.1h6.1c3.4,0,6.2-2.8,6.2-6.2v-2.2c0-3.4-2.8-6.2-6.2-6.2h-6.1V6.7
		C127.7,3.2,124.9,0.4,121.5,0.4L121.5,0.4z"/>
</g>
</svg>
