<?xml version="1.0" encoding="utf-8"?>
<!-- Generator: Adobe Illustrator 24.0.3, SVG Export Plug-In . SVG Version: 6.00 Build 0)  -->
<svg version="1.1" id="Ebene_1" xmlns="http://www.w3.org/2000/svg" xmlns:xlink="http://www.w3.org/1999/xlink" x="0px" y="0px"
	 viewBox="0 0 141.7 141.7" style="enable-background:new 0 0 141.7 141.7;" xml:space="preserve">
<style type="text/css">
	.st0{fill:#5A5A5A;}
</style>
<path id="Icon_awesome-key" class="st0" d="M141.7,48.7c0,26.9-21.9,48.7-48.8,48.7c-3,0-6.1-0.3-9-0.8l-6.6,7.5
	c-1.3,1.4-3.1,2.2-5,2.2H62v11.1c0,3.7-3,6.6-6.6,6.6l0,0H44.3v11.1c0,3.7-3,6.6-6.6,6.6l0,0h-31c-3.7,0-6.6-3-6.6-6.6c0,0,0,0,0,0
	v-21.6c0-1.8,0.7-3.5,1.9-4.7L46.7,64c-8.4-25.6,5.5-53.1,31-61.5s53.1,5.5,61.5,31C140.9,38.4,141.7,43.5,141.7,48.7z M93,35.4
	c0,7.3,5.9,13.3,13.3,13.3s13.3-5.9,13.3-13.3s-5.9-13.3-13.3-13.3S93,28.1,93,35.4z"/>
</svg>
