<?xml version="1.0" encoding="utf-8"?>
<!-- Generator: Adobe Illustrator 24.0.3, SVG Export Plug-In . SVG Version: 6.00 Build 0)  -->
<svg version="1.1" id="Ebene_1" xmlns="http://www.w3.org/2000/svg" xmlns:xlink="http://www.w3.org/1999/xlink" x="0px" y="0px"
	 viewBox="0 0 141.7 141.7" style="enable-background:new 0 0 141.7 141.7;" xml:space="preserve">
<style type="text/css">
	.st0{fill:#5B5B5B;}
	.st1{fill:#FFFFFF;}
</style>
<g>
	<circle id="Ellipse_60" class="st0" cx="70.9" cy="70.9" r="70.9"/>
	<path id="Pfad_30" class="st1" d="M60.8,110.8c-4.2,0-8.4-1.1-12-3.3c-3.7-2.2-6.7-5.4-8.7-9.2c-2.3-4.2-3.4-8.8-3.3-13.6
		c-0.1-4.6,1-9.2,3.2-13.3c2-3.8,5-7,8.7-9.3c3.8-2.3,8.2-3.5,12.7-3.4c2.7,0,5.4,0.4,8,1.2c2.4,0.8,4.7,1.9,6.7,3.5V26.8h20v82.5
		H76v-3.8c-2.2,1.7-4.6,3-7.2,4C66.2,110.3,63.5,110.8,60.8,110.8z M67.1,93.9c1.7,0,3.4-0.4,4.8-1.2c1.4-0.8,2.5-1.9,3.3-3.3
		c0.8-1.4,1.2-3,1.2-4.6c0-1.7-0.4-3.3-1.2-4.8c-2.7-4.3-8.3-5.8-12.8-3.3c-1.4,0.8-2.5,1.9-3.3,3.3c-0.8,1.5-1.3,3.1-1.2,4.8
		c0,1.6,0.4,3.2,1.1,4.6c0.7,1.4,1.9,2.5,3.2,3.2C63.7,93.5,65.4,93.9,67.1,93.9L67.1,93.9z"/>
</g>
</svg>
