<?xml version="1.0" encoding="utf-8"?>
<!-- Generator: Adobe Illustrator 24.0.3, SVG Export Plug-In . SVG Version: 6.00 Build 0)  -->
<svg version="1.1" id="Ebene_1" xmlns="http://www.w3.org/2000/svg" xmlns:xlink="http://www.w3.org/1999/xlink" x="0px" y="0px"
	 viewBox="0 0 141.8 141.8" style="enable-background:new 0 0 141.8 141.8;" xml:space="preserve">
<style type="text/css">
	.st0{fill:#FFFFFF;}
	.st1{fill:#DF7976;}
</style>
<circle class="st0" cx="70.9" cy="70.9" r="70.9"/>
<g id="Icon_ionic-ios-planet" transform="translate(-3.372 -9)">
	<path id="Pfad_1" class="st1" d="M122.3,101.9c-0.6-1.6-1.5-3-2.7-4.2c-3.9-4-8.1-7.7-12.7-10.9c-0.5-0.3-1.2-0.3-1.6,0.2
		c-0.1,0.1-0.1,0.2-0.1,0.3l-1.1,3.1c-0.1,0.5,0,1,0.4,1.3c3.5,2.4,6.7,5.2,9.7,8.3c0.3,0.4,0.2,1-0.2,1.2c-0.2,0.1-0.5,0.2-0.7,0.1
		c-3.5-0.8-6.9-1.8-10.3-3c-2-0.7-4.1-1.6-6.3-2.4c8.6-11.2,7.3-27.1-2.9-36.9c-9.9-9.5-25.2-10.4-36.3-2.4c-4.2,3.1-7.5,7.2-9.4,12
		c-1.9-1.4-3.7-2.7-5.4-4.1c-3.3-2.4-6.3-5-9-8c-0.5-0.7,0.2-1.6,1-1.4c4.4,1.2,8.8,2.7,13.1,4.4c0.3,0.1,0.7,0.1,1-0.2l2.6-2.3
		c0.4-0.3,0.4-1,0.1-1.4c-0.1-0.1-0.2-0.2-0.3-0.3c-8.2-3.3-15.5-5.5-19.2-5.5c-2.1-0.3-4.2,0.7-5.4,2.4c-1.8,3.1,1.6,8.2,10.5,15.5
		c9.9,8,20.5,15.2,31.6,21.3c20.3,11.4,39.7,18.8,48.2,18.8c2,0.3,3.9-0.5,5.1-2.1C122.8,104.6,122.9,103.2,122.3,101.9z"/>
	<path id="Pfad_2" class="st1" d="M87.5,102.3c-7.3-3.1-14.5-6.5-21.4-10.4c-7-3.9-13.8-8.4-19.6-12.4c-0.2-0.1-0.5-0.3-0.8-0.3
		c-0.7,0-1.4,0.6-1.4,1.4c0,0.3,0,0.5,0,0.8c0,7.4,2.9,14.5,8.2,19.7c9.5,9.3,24.1,10.8,35.2,3.6c0.4-0.3,0.7-0.7,0.6-1.3
		C88.2,103,88,102.5,87.5,102.3z"/>
</g>
</svg>
