<?xml version="1.0" encoding="utf-8"?>
<!-- Generator: Adobe Illustrator 24.0.3, SVG Export Plug-In . SVG Version: 6.00 Build 0)  -->
<svg version="1.1" id="Ebene_1" xmlns="http://www.w3.org/2000/svg" xmlns:xlink="http://www.w3.org/1999/xlink" x="0px" y="0px"
	 viewBox="0 0 141.7 141.7" style="enable-background:new 0 0 141.7 141.7;" xml:space="preserve">
<style type="text/css">
	.st0{fill:#FFFFFF;}
	.st1{fill:none;stroke:#DF7976;stroke-width:8.9989;}
	.st2{enable-background:new    ;}
	.st3{fill:#DF7976;}
</style>
<g>
	<g id="Ellipse_41" transform="translate(1458 285)">
		<ellipse class="st0" cx="-1387.1" cy="-214.1" rx="70.9" ry="69.7"/>
		<ellipse class="st1" cx="-1387.1" cy="-214.1" rx="66.4" ry="65.2"/>
	</g>
	<g class="st2">
		<path class="st3" d="M64.5,81.7V65.3c0.5,0.1,1.1,0.3,1.9,0.3c0.8,0.1,1.6,0.1,2.4,0.1c2.1,0,4-0.3,5.5-1c1.5-0.6,2.7-1.6,3.6-2.8
			c0.8-1.2,1.2-2.7,1.2-4.5c0-1.7-0.4-3.1-1.1-4.3c-0.8-1.2-1.8-2.1-3.3-2.8c-1.4-0.6-3.1-1-5-1c-2.7,0-4.9,0.7-6.6,2
			c-1.7,1.3-2.8,3.2-3.1,5.6l-9.2-1.9c0.5-3.2,1.7-6,3.5-8.3c1.8-2.3,4.1-4.1,6.8-5.3c2.7-1.2,5.6-1.9,8.8-1.9
			c3.8,0,7.2,0.8,10.2,2.4c3,1.6,5.3,3.8,6.9,6.5c1.7,2.7,2.5,5.7,2.5,8.9c0,2.9-0.7,5.6-2,8.1c-1.3,2.5-3.1,4.5-5.4,6.2
			c-2.3,1.6-4.8,2.7-7.5,3.2v6.7H64.5z M69.5,101.3c-1.3,0-2.5-0.3-3.6-1c-1.1-0.6-2-1.5-2.6-2.6c-0.6-1.1-1-2.3-1-3.6
			c0-1.3,0.3-2.6,1-3.6c0.6-1.1,1.5-1.9,2.6-2.6c1.1-0.6,2.3-1,3.6-1c1.3,0,2.6,0.3,3.7,1c1.1,0.6,2,1.5,2.6,2.6
			c0.6,1.1,1,2.3,1,3.6c0,1.3-0.3,2.5-1,3.6c-0.6,1.1-1.5,2-2.6,2.6C72.1,100.9,70.9,101.3,69.5,101.3z"/>
	</g>
</g>
</svg>
