<?xml version="1.0" encoding="utf-8"?>
<!-- Generator: Adobe Illustrator 24.0.3, SVG Export Plug-In . SVG Version: 6.00 Build 0)  -->
<svg version="1.1" id="Ebene_1" xmlns="http://www.w3.org/2000/svg" xmlns:xlink="http://www.w3.org/1999/xlink" x="0px" y="0px"
	 viewBox="0 0 141.7 141.7" style="enable-background:new 0 0 141.7 141.7;" xml:space="preserve">
<style type="text/css">
	.st0{fill:#DF7976;}
	.st1{enable-background:new    ;}
	.st2{fill:#FFFFFF;}
</style>
<circle class="st0" cx="70.9" cy="70.9" r="70.9"/>
<g class="st1">
	<path class="st2" d="M61.5,89.5V62.4c0.8,0.2,1.8,0.5,3.1,0.5c1.3,0.2,2.6,0.2,4,0.2c3.5,0,6.6-0.5,9.1-1.7c2.5-1,4.5-2.6,5.9-4.6
		c1.3-2,2-4.5,2-7.4c0-2.8-0.7-5.1-1.8-7.1c-1.3-2-3-3.5-5.4-4.6c-2.3-1-5.1-1.7-8.3-1.7c-4.5,0-8.1,1.2-10.9,3.3
		c-2.8,2.1-4.6,5.3-5.1,9.2l-15.2-3.1c0.8-5.3,2.8-9.9,5.8-13.7S51.5,25,55.9,23s9.2-3.1,14.5-3.1c6.3,0,11.9,1.3,16.8,4
		c5,2.6,8.8,6.3,11.4,10.7c2.8,4.5,4.1,9.4,4.1,14.7c0,4.8-1.2,9.2-3.3,13.4s-5.1,7.4-8.9,10.2c-3.8,2.6-7.9,4.5-12.4,5.3v11.1H61.5
		V89.5z M69.8,121.9c-2.1,0-4.1-0.5-5.9-1.7c-1.8-1-3.3-2.5-4.3-4.3c-1-1.8-1.7-3.8-1.7-5.9c0-2.1,0.5-4.3,1.7-5.9
		c1-1.8,2.5-3.1,4.3-4.3c1.8-1,3.8-1.7,5.9-1.7c2.1,0,4.3,0.5,6.1,1.7c1.8,1,3.3,2.5,4.3,4.3c1,1.8,1.7,3.8,1.7,5.9
		c0,2.1-0.5,4.1-1.7,5.9c-1,1.8-2.5,3.3-4.3,4.3C74.1,121.2,72.1,121.9,69.8,121.9z"/>
</g>
</svg>
