<?xml version="1.0" encoding="utf-8"?>
<!-- Generator: Adobe Illustrator 24.0.3, SVG Export Plug-In . SVG Version: 6.00 Build 0)  -->
<svg version="1.1" id="Ebene_1" xmlns="http://www.w3.org/2000/svg" xmlns:xlink="http://www.w3.org/1999/xlink" x="0px" y="0px"
	 viewBox="0 0 141.8 141.7" style="enable-background:new 0 0 141.8 141.7;" xml:space="preserve">
<style type="text/css">
	.st0{fill:#CCCCCC;}
</style>
<g id="Icon_ionic-ios-planet" transform="translate(-3.372 -9)">
	<path id="Pfad_1" class="st0" d="M144.8,112.4c-0.9-2.3-2.2-4.4-3.9-6.2c-5.7-5.9-11.9-11.3-18.7-16.1c-0.7-0.5-1.8-0.4-2.3,0.3
		c-0.1,0.1-0.2,0.3-0.2,0.5l-1.6,4.6c-0.2,0.7,0,1.4,0.6,1.9c5.2,3.6,9.9,7.7,14.2,12.2c0.4,0.6,0.3,1.4-0.3,1.8
		c-0.3,0.2-0.7,0.3-1,0.2c-5.1-1.2-10.1-2.6-15.1-4.4c-2.9-1.1-6-2.3-9.3-3.6c12.7-16.5,10.8-39.9-4.2-54.2
		c-14.6-13.9-37-15.3-53.3-3.5c-6.2,4.5-11,10.6-13.8,17.7c-2.8-2-5.5-4-7.9-6c-4.8-3.5-9.2-7.4-13.2-11.8c-0.7-1,0.3-2.3,1.5-2
		c6.5,1.8,12.9,4,19.2,6.4c0.5,0.2,1.1,0.1,1.5-0.3l3.8-3.4c0.6-0.5,0.6-1.5,0.1-2.1c-0.1-0.2-0.3-0.3-0.5-0.4
		c-12-4.9-22.8-8.1-28.2-8.1c-3.1-0.4-6.2,1-7.9,3.5c-2.6,4.5,2.4,12,15.4,22.8C34.2,74,49.8,84.5,66.2,93.5
		c29.8,16.7,58.3,27.6,70.9,27.6c2.9,0.4,5.8-0.8,7.5-3.1C145.5,116.4,145.6,114.3,144.8,112.4z"/>
	<path id="Pfad_2" class="st0" d="M93.6,113c-10.8-4.5-21.3-9.6-31.5-15.3C51.8,92,41.8,85.3,33.3,79.5c-0.3-0.2-0.7-0.4-1.2-0.4
		c-1.1,0-2,0.9-2.1,2c0,0.4,0,0.8,0,1.2c0,10.9,4.3,21.3,12.1,28.9c13.9,13.7,35.4,15.9,51.8,5.3c0.6-0.4,1-1.1,0.9-1.9
		C94.7,114,94.3,113.3,93.6,113z"/>
</g>
</svg>
