<?xml version="1.0" encoding="utf-8"?>
<!-- Generator: Adobe Illustrator 24.0.3, SVG Export Plug-In . SVG Version: 6.00 Build 0)  -->
<svg version="1.1" id="Ebene_1" xmlns="http://www.w3.org/2000/svg" xmlns:xlink="http://www.w3.org/1999/xlink" x="0px" y="0px"
	 viewBox="0 0 141.7 141.7" style="enable-background:new 0 0 141.7 141.7;" xml:space="preserve">
<style type="text/css">
	.st0{fill:#5A5A5A;}
	.st1{fill:#FFFFFF;}
</style>
<circle id="Ellipse_77" class="st0" cx="70.9" cy="70.9" r="70.9"/>
<path id="Icon_metro-attachment" class="st1" d="M84.1,55.8L79,50.7L53.2,76.4c-4.3,4.3-4.3,11.2,0,15.5s11.2,4.3,15.5,0L99.6,61
	c7.1-7.1,7.1-18.7-0.1-25.8c-7.1-7.1-18.6-7.1-25.7,0L41.3,67.7l-0.1,0.1c-9.8,10-9.6,26.1,0.4,35.9c9.9,9.7,25.7,9.7,35.6,0
	l0.1-0.1l0,0l22.2-22.2l-5.2-5.2L72.1,98.4l-0.1,0.1c-7.1,7.1-18.6,7.1-25.6,0c-7.1-7.1-7.1-18.6,0-25.6l0.1-0.1l0,0L79,40.3
	c4.3-4.3,11.2-4.3,15.5,0c4.3,4.3,4.3,11.2,0,15.5L63.5,86.7c-1.4,1.4-3.7,1.4-5.2,0c-1.4-1.4-1.4-3.7,0-5.2l0,0L84.1,55.8
	L84.1,55.8z"/>
</svg>
