<?xml version="1.0" encoding="utf-8"?>
<!-- Generator: Adobe Illustrator 24.0.3, SVG Export Plug-In . SVG Version: 6.00 Build 0)  -->
<svg version="1.1" id="Ebene_1" xmlns="http://www.w3.org/2000/svg" xmlns:xlink="http://www.w3.org/1999/xlink" x="0px" y="0px"
	 viewBox="0 0 141.8 141.8" style="enable-background:new 0 0 141.8 141.8;" xml:space="preserve">
<style type="text/css">
	.st0{fill:#FFFFFF;}
	.st1{fill:#DF7976;}
</style>
<circle class="st0" cx="70.9" cy="70.9" r="70.9"/>
<path id="Icon_ionic-md-pricetag" class="st1" d="M100,33.3H67.3L29.9,72.1c-3.4,3.4-3.5,9,0,12.4l0,0L55.5,110
	c1.6,1.5,3.8,2.5,5.9,2.6c2.4-0.1,4.7-1,6.5-2.6L106.7,73V39.9L100,33.3z M93.7,54.5c-3.5,1.1-7.2-0.9-8.2-4.4s0.9-7.2,4.4-8.2
	c3.5-1.1,7.2,0.9,8.2,4.4c0.4,1.2,0.4,2.6,0,3.8C97.5,52.2,95.8,53.9,93.7,54.5z"/>
</svg>
