<?xml version="1.0" encoding="utf-8"?>
<!-- Generator: Adobe Illustrator 24.0.3, SVG Export Plug-In . SVG Version: 6.00 Build 0)  -->
<svg version="1.1" id="Ebene_1" xmlns="http://www.w3.org/2000/svg" xmlns:xlink="http://www.w3.org/1999/xlink" x="0px" y="0px"
	 viewBox="0 0 141.7 141.7" style="enable-background:new 0 0 141.7 141.7;" xml:space="preserve">
<style type="text/css">
	.st0{fill:#CCCCCC;}
</style>
<path id="Icon_metro-attachment" class="st0" d="M95.1,44.9l-9-9L41,80.9c-7.5,7.5-7.5,19.6,0,27c7.5,7.5,19.6,7.5,27,0l54.1-54.1
	c12.4-12.5,12.4-32.7-0.1-45.1c-12.4-12.4-32.5-12.4-45,0L20.3,65.6l-0.1,0.1C3,83.3,3.3,111.4,20.8,128.6
	c17.3,16.9,44.9,16.9,62.2,0l0.1-0.1l0,0l38.8-38.8l-9-9l-38.8,38.8l-0.1,0.1c-12.4,12.4-32.4,12.4-44.8,0s-12.4-32.4,0-44.8
	l0.1-0.1l0,0l56.8-56.8c7.5-7.5,19.6-7.5,27,0c7.5,7.5,7.5,19.6,0,27L59,99c-2.5,2.5-6.5,2.5-9,0s-2.5-6.5,0-9l0,0L95.1,44.9
	L95.1,44.9z"/>
</svg>
