<?xml version="1.0" encoding="utf-8"?>
<!-- Generator: Adobe Illustrator 24.0.3, SVG Export Plug-In . SVG Version: 6.00 Build 0)  -->
<svg version="1.1" id="Ebene_1" xmlns="http://www.w3.org/2000/svg" xmlns:xlink="http://www.w3.org/1999/xlink" x="0px" y="0px"
	 viewBox="0 0 141.8 141.7" style="enable-background:new 0 0 141.8 141.7;" xml:space="preserve">
<style type="text/css">
	.st0{fill:#5A5A5A;}
</style>
<path id="Icon_material-date-range" class="st0" d="M49.6,63.8H35.5V78h14.2L49.6,63.8z M78,63.8H63.8V78H78V63.8z M106.3,63.8H92.1
	V78h14.2V63.8z M120.5,14.2h-7.1V0H99.2v14.2H42.5V0H28.4v14.2h-7.1c-7.8,0-14.1,6.3-14.1,14.1c0,0,0,0,0,0.1l-0.1,99.2
	c0,7.8,6.3,14.2,14.2,14.2c0,0,0,0,0,0h99.2c7.8,0,14.2-6.4,14.2-14.2V28.3C134.6,20.5,128.3,14.2,120.5,14.2L120.5,14.2z
	 M120.5,127.6H21.3v-78h99.2V127.6z"/>
</svg>
