<?xml version="1.0" encoding="utf-8"?>
<!-- Generator: Adobe Illustrator 24.0.3, SVG Export Plug-In . SVG Version: 6.00 Build 0)  -->
<svg version="1.1" id="Ebene_1" xmlns="http://www.w3.org/2000/svg" xmlns:xlink="http://www.w3.org/1999/xlink" x="0px" y="0px"
	 viewBox="0 0 141.7 141.7" style="enable-background:new 0 0 141.7 141.7;" xml:space="preserve">
<style type="text/css">
	.st0{fill:#919191;}
</style>
<path id="Icon_ionic-md-pricetag" class="st0" d="M129.9,0H71.5L4.6,69.2c-6.1,6.1-6.2,16.1,0,22.2c0,0,0,0,0,0l45.7,45.6
	c2.9,2.7,6.7,4.4,10.6,4.6c4.3-0.2,8.4-1.8,11.6-4.6l69.2-66.2V11.8L129.9,0z M118.6,37.9c-6.3,1.9-12.9-1.6-14.7-7.9
	c-1.9-6.3,1.6-12.9,7.9-14.7c6.3-1.9,12.9,1.6,14.7,7.9c0.7,2.2,0.7,4.6,0,6.8C125.4,33.8,122.4,36.8,118.6,37.9z"/>
</svg>
